<svg width="275" height="413" viewBox="0 0 275 413" fill="none" xmlns="http://www.w3.org/2000/svg">
<path fill-rule="evenodd" clip-rule="evenodd" d="M271.298 321.358C272.359 320.022 272.993 318.331 272.993 316.493C272.993 312.17 269.489 308.666 265.167 308.666C262.463 308.666 260.079 310.037 258.673 312.121L258.667 312.117L202.054 391.179L143.414 312.015C141.939 310.022 139.606 308.847 137.127 308.847C134.647 308.847 132.314 310.022 130.839 312.015L72.1444 391.252L14.4652 312.065L14.4429 312.081C13.0072 310.375 10.8561 309.291 8.45172 309.291C4.12914 309.291 0.625 312.795 0.625 317.118C0.625 318.646 1.06278 320.071 1.81973 321.276L1.81528 321.279L1.86671 321.35C2.02955 321.603 2.20655 321.846 2.3966 322.077L65.7664 409.077C67.2327 411.09 69.5697 412.285 72.0601 412.295C74.5505 412.304 76.8969 411.128 78.3793 409.127L137.127 329.818L195.874 409.127C197.363 411.137 199.723 412.314 202.225 412.294C204.726 412.274 207.067 411.059 208.524 409.025L271.298 321.358Z" fill="white"/>
<path fill-rule="evenodd" clip-rule="evenodd" d="M137.134 222.49C139.661 222.49 142.033 223.71 143.502 225.766L202.299 308.082L230.396 270.327C231.786 268.152 234.222 266.71 236.995 266.71C241.318 266.71 244.822 270.214 244.822 274.537C244.822 276.382 244.184 278.077 243.116 279.415L243.132 279.427L208.447 326.035C206.954 328.041 204.593 329.213 202.093 329.188C199.593 329.164 197.255 327.946 195.802 325.912L137.134 243.777L78.4666 325.912C77.0135 327.946 74.6756 329.164 72.1756 329.188C69.6755 329.213 67.3143 328.041 65.8217 326.035L31.1363 279.427L31.1416 279.423C30.0703 278.084 29.4297 276.385 29.4297 274.537C29.4297 270.214 32.9338 266.71 37.2564 266.71C39.9417 266.71 42.3112 268.063 43.7209 270.123L71.9696 308.082L130.767 225.766C132.236 223.71 134.607 222.49 137.134 222.49Z" fill="white"/>
<path fill-rule="evenodd" clip-rule="evenodd" d="M137.133 0.300049C140.156 0.300049 142.909 2.04131 144.204 4.77285L273.19 276.836L273.177 276.842C273.859 278.004 274.251 279.356 274.251 280.8C274.251 285.123 270.746 288.627 266.424 288.627C263.059 288.627 260.19 286.504 259.084 283.524L259.049 283.541L137.133 26.3909L15.2178 283.541L15.1689 283.517C14.0645 286.501 11.1939 288.627 7.82672 288.627C3.50414 288.627 0 285.123 0 280.8C0 279.354 0.392404 277.999 1.0766 276.836L130.063 4.77285C131.358 2.04131 134.11 0.300049 137.133 0.300049Z" fill="white"/>
</svg>
